<svg xmlns="http://www.w3.org/2000/svg" viewBox="0 0 310 440">
  <rect width="310" height="440" fill="#3F0D2E"/>
  <rect x="20" y="20" width="270" height="400" rx="28" fill="#1F2937"/>
  <rect x="48" y="70" width="214" height="300" rx="24" fill="#FBCFE8"/>
  <ellipse cx="155" cy="228" rx="86" ry="98" fill="#F4C7B2"/>
  <path fill="#111827" d="M76 186c22-47 70-76 123-76 27 0 53 8 74 24-18 1-35 5-50 11-52 21-95 62-121 116-15-18-22-43-26-75z"/>
  <path fill="#F472B6" d="M88 140c35-20 65-29 92-29 29 0 56 9 83 28-23-4-50 1-84 14-33 13-59 30-82 54-9-22-11-43-9-67z"/>
  <ellipse cx="126" cy="226" rx="13" ry="10" fill="#111827"/>
  <ellipse cx="186" cy="226" rx="13" ry="10" fill="#111827"/>
  <circle cx="130" cy="223" r="3" fill="#fff"/>
  <circle cx="190" cy="223" r="3" fill="#fff"/>
  <rect x="126" y="268" width="58" height="18" rx="6" fill="#65A30D"/>
  <text x="155" y="390" text-anchor="middle" font-size="24" font-family="Arial" fill="#F9A8D4">Nezuko</text>
</svg>
