<?xml version="1.0" encoding="UTF-8" standalone="no"?>
<svg width="456" height="456" viewBox="0 0 456 456" version="1.1" xmlns="http://www.w3.org/2000/svg">
    <path d="M124 176c16-58 70-100 137-100 57 0 107 33 133 84-28-16-60-24-97-24-24 0-48 4-71 12-29 10-54 26-75 48-12 12-21 26-27 40 0-20 0-28 0-60z" fill="#3F6212"/>
    <path d="M120 198c8-32 28-61 58-82 32-22 75-33 117-26 20 3 39 11 55 24-20-4-39-3-58 1-22 4-44 13-64 25-27 15-49 35-67 58-15 18-26 38-33 59-7-19-10-39-8-59z" fill="#166534"/>
    <ellipse cx="228" cy="250" rx="104" ry="112" fill="#F3C9A6"/>
    <path d="M148 263c10 46 41 93 80 111-77-3-119-55-119-110 0-33 15-64 41-87-9 28-10 57-2 86z" fill="#E5B48B"/>
    <path d="M311 157c-16-12-39-18-64-18-59 0-112 33-142 83 2-18 7-35 16-50 21-37 62-64 109-71 57-9 107 11 134 56-15-2-34-1-53 0z" fill="#2F5D20"/>
    <path d="M214 175c16-21 52-31 89-21 19 5 35 15 47 31-31-6-53-3-78 6-22 8-37 20-51 37-11-9-14-31-7-53z" fill="#111827"/>
    <path d="M176 222c17-11 34-16 52-16 20 0 37 6 52 17-17-2-35 4-52 4-18 0-34-6-52-5z" fill="#111827"/>
    <ellipse cx="194" cy="245" rx="16" ry="11" fill="#111827"/>
    <ellipse cx="264" cy="245" rx="16" ry="11" fill="#111827"/>
    <circle cx="199" cy="243" r="4" fill="#FFFFFF"/>
    <circle cx="269" cy="243" r="4" fill="#FFFFFF"/>
    <path d="M208 289c13 8 27 12 42 12 15 0 29-4 42-12-7 21-23 34-42 34-18 0-34-13-42-34z" fill="#7C2D12"/>
    <path d="M154 176c18-35 58-60 102-60 22 0 43 6 60 16-28 4-54 14-77 30-22 16-40 36-55 61-11-14-18-31-30-47z" fill="#111827"/>
    <path d="M226 122c9-15 24-27 42-33-7 16-8 33-2 51-11-8-24-14-40-18z" fill="#7F1D1D"/>
    <path d="M210 120c18-8 37-10 56-6-17 8-30 23-39 44-8-17-14-28-17-38z" fill="#B91C1C"/>
    <path d="M231 96c18-8 34-7 49 4-20 4-34 13-42 28-1-12-4-22-7-32z" fill="#DC2626"/>
</svg>
